<?xml version="1.0" encoding="utf-8"?>
<!-- Generator: Adobe Illustrator 22.0.0, SVG Export Plug-In . SVG Version: 6.00 Build 0)  -->
<svg version="1.1" id="Layer_1" xmlns="http://www.w3.org/2000/svg" xmlns:xlink="http://www.w3.org/1999/xlink" x="0px" y="0px"
	 viewBox="0 0 674 486" style="enable-background:new 0 0 674 486;" xml:space="preserve">
<style type="text/css">
	.st0{fill:#BCBEC0;}
	.st1{opacity:0.5;enable-background:new    ;}
	.st2{fill:#CECECE;}
	.st3{fill:#2EC7C9;}
	.st4{fill:#039BE5;}
	.st5{fill:#607D8B;}
	.st6{fill:#FFB980;}
	.st7{fill:#231F20;}
	.st8{fill:#FFFFFF;}
</style>
<g>
	<path class="st0" d="M656.6,134.8c-0.1,0-0.3,0-0.4-0.1c-2.7-1.3-5.4-2.6-8.1-3.9c-0.5-0.2-0.7-0.8-0.5-1.3s0.8-0.7,1.3-0.5
		c2.7,1.3,5.5,2.6,8.1,3.9c0.5,0.2,0.7,0.8,0.5,1.3C657.3,134.6,656.9,134.8,656.6,134.8z M643.9,128.9c-0.1,0-0.3,0-0.4-0.1
		c-2.7-1.2-5.5-2.4-8.3-3.5c-0.5-0.2-0.8-0.8-0.6-1.3s0.8-0.8,1.3-0.6c2.8,1.1,5.6,2.3,8.3,3.5c0.5,0.2,0.7,0.8,0.5,1.3
		C644.6,128.6,644.3,128.9,643.9,128.9z M630.9,123.5c-0.1,0-0.2,0-0.4-0.1c-2.8-1.1-5.6-2.1-8.4-3.1c-0.5-0.2-0.8-0.8-0.6-1.3
		s0.8-0.8,1.3-0.6c2.8,1,5.7,2.1,8.5,3.1c0.5,0.2,0.8,0.8,0.6,1.3C631.7,123.3,631.3,123.5,630.9,123.5z M617.8,118.7
		c-0.1,0-0.2,0-0.3-0.1c-2.8-1-5.7-1.9-8.5-2.8c-0.5-0.2-0.8-0.7-0.7-1.3c0.2-0.5,0.7-0.8,1.3-0.7c2.9,0.9,5.8,1.8,8.6,2.8
		c0.5,0.2,0.8,0.7,0.6,1.3C618.6,118.5,618.2,118.7,617.8,118.7z M604.4,114.5c-0.1,0-0.2,0-0.3,0c-2.8-0.8-5.7-1.7-8.6-2.5
		c-0.5-0.1-0.8-0.7-0.7-1.2s0.7-0.9,1.2-0.7c2.9,0.8,5.8,1.6,8.7,2.5c0.5,0.2,0.8,0.7,0.7,1.2C605.3,114.2,604.9,114.5,604.4,114.5z
		 M590.9,110.7c-0.1,0-0.2,0-0.3,0c-2.9-0.7-5.8-1.5-8.7-2.1c-0.5-0.1-0.9-0.7-0.7-1.2c0.1-0.5,0.7-0.9,1.2-0.7
		c2.9,0.7,5.9,1.4,8.8,2.1c0.5,0.1,0.9,0.7,0.7,1.2C591.8,110.4,591.4,110.7,590.9,110.7z M577.3,107.5c-0.1,0-0.1,0-0.2,0
		c-2.9-0.6-5.9-1.2-8.8-1.8c-0.5-0.1-0.9-0.6-0.8-1.2c0.1-0.5,0.6-0.9,1.2-0.8c2.9,0.6,5.9,1.2,8.8,1.8c0.5,0.1,0.9,0.7,0.8,1.2
		C578.2,107.2,577.8,107.5,577.3,107.5z M563.6,104.8c-0.1,0-0.1,0-0.2,0c-3-0.5-6-1-8.9-1.4c-0.5-0.1-0.9-0.6-0.8-1.1
		c0.1-0.5,0.6-0.9,1.1-0.8c2.9,0.4,5.9,0.9,8.9,1.5c0.5,0.1,0.9,0.6,0.8,1.2C564.5,104.4,564.1,104.8,563.6,104.8z M549.7,102.6
		L549.7,102.6c-3.1-0.4-6.1-0.8-9-1c-0.5-0.1-1-0.5-0.9-1.1c0.1-0.5,0.6-0.9,1.1-0.9c2.9,0.3,5.9,0.6,9,1.1c0.5,0.1,0.9,0.6,0.9,1.1
		C550.7,102.3,550.2,102.6,549.7,102.6z M512.8,101.1c-0.5,0-0.9-0.4-1-0.9s0.3-1.1,0.8-1.1c2.4-0.4,5.5-0.6,9.1-0.6l0,0
		c0.5,0,1,0.4,1,1s-0.4,1-1,1C518.2,100.5,515.2,100.7,512.8,101.1C512.9,101.1,512.9,101.1,512.8,101.1z M535.8,101.1L535.8,101.1
		c-3.2-0.3-6.2-0.4-9-0.5c-0.6,0-1-0.5-1-1c0-0.6,0.5-1,1-1c2.8,0.1,5.9,0.3,9,0.5c0.6,0,1,0.5,0.9,1.1
		C536.8,100.7,536.3,101.1,535.8,101.1z"/>
</g>
<g class="st1">
	<path class="st2" d="M312.1,14.2C522.8,27.5,702,88.8,616.6,310.1S445.8,450.2,348.4,431s-226.9,62.1-300.6-51.1
		C-38.5,247.3,113.1,229,88.3,155.4C42.5,19.9,195.9,7,312.1,14.2z"/>
</g>
<g class="st1">
	<path class="st2" d="M352.3,22.4C141.5,35.8-37.6,97.3,48.1,318.5s171,140,268.4,120.7s227,61.8,300.5-51.3
		c86.1-132.7-65.4-150.8-40.7-224.5C621.8,27.6,468.5,14.9,352.3,22.4z"/>
</g>
<g>
	<path class="st0" d="M247.8,354.4L247.8,354.4c-3,0-6.1-0.1-9.1-0.3c-0.6,0-1-0.5-0.9-1.1c0-0.6,0.5-1,1.1-0.9
		c2.9,0.2,5.9,0.3,8.9,0.3c0.6,0,1,0.5,1,1S248.3,354.4,247.8,354.4z M252.8,354.3c-0.5,0-1-0.4-1-1s0.4-1,1-1
		c0.8,0,1.6-0.1,2.4-0.1c2.2-0.1,4.4-0.2,6.5-0.4c0.5,0,1,0.4,1.1,0.9c0,0.5-0.4,1-0.9,1.1c-2.1,0.2-4.4,0.3-6.6,0.4
		C254.4,354.3,253.6,354.3,252.8,354.3L252.8,354.3z M233.8,353.7C233.8,353.7,233.7,353.7,233.8,353.7c-3.1-0.3-6.1-0.7-9.1-1.1
		c-0.5-0.1-0.9-0.6-0.8-1.1c0.1-0.5,0.6-0.9,1.1-0.8c2.9,0.5,5.9,0.8,8.9,1.1c0.5,0.1,1,0.5,0.9,1.1
		C234.7,353.3,234.3,353.7,233.8,353.7z M266.7,353.4c-0.5,0-0.9-0.4-1-0.9s0.3-1,0.9-1.1c3-0.3,5.9-0.8,8.8-1.3
		c0.5-0.1,1.1,0.3,1.2,0.8s-0.3,1.1-0.8,1.2c-2.9,0.5-5.9,1-8.9,1.3C266.8,353.4,266.7,353.4,266.7,353.4z M220,351.7
		c-0.1,0-0.1,0-0.2,0c-2.9-0.6-5.9-1.2-8.8-2c-0.5-0.1-0.9-0.7-0.7-1.2c0.1-0.5,0.7-0.9,1.2-0.7c2.9,0.7,5.8,1.4,8.7,2
		c0.5,0.1,0.9,0.6,0.8,1.2C220.8,351.4,220.4,351.7,220,351.7z M280.4,351.1c-0.5,0-0.9-0.3-1-0.8s0.2-1.1,0.8-1.2
		c2.9-0.6,5.8-1.4,8.6-2.2c0.5-0.2,1.1,0.1,1.2,0.7c0.2,0.5-0.1,1.1-0.7,1.2c-2.8,0.8-5.8,1.6-8.7,2.3
		C280.6,351.1,280.5,351.1,280.4,351.1z M206.4,348.4c-0.1,0-0.2,0-0.3,0c-2.9-0.9-5.8-1.8-8.6-2.8c-0.5-0.2-0.8-0.8-0.6-1.3
		s0.8-0.8,1.3-0.6c2.8,1,5.6,2,8.5,2.8c0.5,0.2,0.8,0.7,0.7,1.2C207.2,348.2,206.8,348.4,206.4,348.4z M293.9,347.3
		c-0.4,0-0.8-0.3-0.9-0.7c-0.2-0.5,0.1-1.1,0.6-1.3c2.8-1,5.6-2.1,8.3-3.3c0.5-0.2,1.1,0,1.3,0.5c0.2,0.5,0,1.1-0.5,1.3
		c-2.7,1.2-5.6,2.3-8.4,3.3C294.1,347.3,294,347.3,293.9,347.3z M193.2,343.8c-0.1,0-0.3,0-0.4-0.1c-2.8-1.1-5.6-2.4-8.3-3.7
		c-0.5-0.2-0.7-0.8-0.5-1.3s0.8-0.7,1.3-0.5c2.7,1.3,5.4,2.5,8.2,3.6c0.5,0.2,0.8,0.8,0.5,1.3C194,343.6,193.6,343.8,193.2,343.8z
		 M306.7,341.9c-0.4,0-0.7-0.2-0.9-0.6c-0.2-0.5,0-1.1,0.4-1.3c2.6-1.3,5.2-2.8,7.7-4.3c0.5-0.3,1.1-0.1,1.4,0.3
		c0.3,0.5,0.1,1.1-0.3,1.4c-2.5,1.6-5.2,3.1-7.9,4.4C307,341.9,306.9,341.9,306.7,341.9z M180.5,337.9c-0.2,0-0.3,0-0.5-0.1
		c-2.6-1.4-5.3-2.9-7.9-4.4c-0.5-0.3-0.6-0.9-0.3-1.4s0.9-0.6,1.4-0.3c2.6,1.5,5.2,3,7.8,4.4c0.5,0.3,0.7,0.9,0.4,1.3
		C181.2,337.7,180.9,337.9,180.5,337.9z M318.7,334.8c-0.3,0-0.6-0.2-0.8-0.4c-0.3-0.5-0.2-1.1,0.3-1.4c2.4-1.7,4.8-3.5,7.1-5.4
		c0.4-0.3,1.1-0.3,1.4,0.1c0.4,0.4,0.3,1.1-0.1,1.4c-2.3,1.9-4.8,3.8-7.2,5.5C319.1,334.7,318.9,334.8,318.7,334.8z M168.5,330.9
		c-0.2,0-0.4-0.1-0.5-0.2c-2.5-1.6-5-3.3-7.5-5.1c-0.4-0.3-0.5-0.9-0.2-1.4c0.3-0.4,0.9-0.5,1.4-0.2c2.4,1.8,4.9,3.4,7.4,5
		c0.5,0.3,0.6,0.9,0.3,1.4C169.1,330.7,168.8,330.9,168.5,330.9z M329.6,326.1c-0.3,0-0.5-0.1-0.7-0.3c-0.4-0.4-0.3-1,0.1-1.4
		c2.2-2,4.3-4,6.3-6.2c0.4-0.4,1-0.4,1.4,0s0.4,1,0,1.4c-2.1,2.2-4.3,4.3-6.4,6.3C330.1,326,329.9,326.1,329.6,326.1z M157,322.8
		c-0.2,0-0.4-0.1-0.6-0.2c-2.4-1.8-4.7-3.7-7-5.7c-0.4-0.4-0.5-1-0.1-1.4s1-0.5,1.4-0.1c2.3,1.9,4.6,3.8,7,5.6
		c0.4,0.3,0.5,1,0.2,1.4C157.6,322.7,157.3,322.8,157,322.8z M339.4,316.1c-0.2,0-0.5-0.1-0.7-0.2c-0.4-0.4-0.5-1-0.1-1.4
		c1.9-2.2,3.8-4.5,5.6-6.9c0.3-0.4,1-0.5,1.4-0.2s0.5,1,0.2,1.4c-1.8,2.4-3.8,4.8-5.7,7C339.9,316,339.6,316.1,339.4,316.1z
		 M146.3,313.9c-0.2,0-0.5-0.1-0.7-0.3c-2.2-2-4.4-4.1-6.6-6.2c-0.4-0.4-0.4-1,0-1.4s1-0.4,1.4,0c2.1,2.1,4.3,4.2,6.5,6.1
		c0.4,0.4,0.4,1,0.1,1.4C146.8,313.8,146.5,313.9,146.3,313.9z M347.9,305.1c-0.2,0-0.4-0.1-0.6-0.2c-0.5-0.3-0.6-0.9-0.2-1.4
		c1.7-2.4,3.3-4.9,4.9-7.5c0.3-0.5,0.9-0.6,1.4-0.3c0.5,0.3,0.6,0.9,0.3,1.4c-1.6,2.6-3.3,5.1-5,7.5
		C348.6,305,348.3,305.1,347.9,305.1z M136.2,304.1c-0.3,0-0.5-0.1-0.7-0.3c-2.1-2.1-4.1-4.4-6.1-6.6c-0.4-0.4-0.3-1,0.1-1.4
		c0.4-0.4,1-0.3,1.4,0.1c2,2.2,4,4.5,6.1,6.6c0.4,0.4,0.4,1,0,1.4C136.7,304,136.5,304.1,136.2,304.1z M126.9,293.7
		c-0.3,0-0.6-0.1-0.8-0.4c-1.9-2.3-3.8-4.6-5.7-7c-0.3-0.4-0.3-1.1,0.2-1.4c0.4-0.3,1.1-0.3,1.4,0.2c1.8,2.4,3.8,4.7,5.7,7
		c0.4,0.4,0.3,1.1-0.1,1.4C127.3,293.6,127.1,293.7,126.9,293.7z M355.5,293.3c-0.2,0-0.3,0-0.5-0.1c-0.5-0.3-0.6-0.9-0.4-1.4
		c1.5-2.5,2.9-5.1,4.4-7.8c0.3-0.5,0.9-0.7,1.4-0.4c0.5,0.3,0.7,0.9,0.4,1.4c-1.5,2.7-2.9,5.4-4.4,7.9
		C356.2,293.1,355.8,293.3,355.5,293.3z M118.1,282.8c-0.3,0-0.6-0.1-0.8-0.4c-1.8-2.4-3.6-4.8-5.3-7.3c-0.3-0.5-0.2-1.1,0.2-1.4
		c0.5-0.3,1.1-0.2,1.4,0.2c1.7,2.5,3.5,4.9,5.3,7.3c0.3,0.4,0.2,1.1-0.2,1.4C118.6,282.7,118.3,282.8,118.1,282.8z M362.2,281
		c-0.2,0-0.3,0-0.5-0.1c-0.5-0.3-0.7-0.9-0.4-1.3c1.3-2.5,2.6-5.3,3.9-8.1c0.2-0.5,0.8-0.7,1.3-0.5s0.7,0.8,0.5,1.3
		c-1.3,2.8-2.7,5.6-4,8.1C362.9,280.8,362.6,281,362.2,281z M110,271.3c-0.3,0-0.6-0.2-0.8-0.4c-1.7-2.5-3.3-5-4.9-7.6
		c-0.3-0.5-0.2-1.1,0.3-1.4s1.1-0.2,1.4,0.3c1.6,2.6,3.2,5.1,4.9,7.6c0.3,0.5,0.2,1.1-0.3,1.4C110.4,271.3,110.2,271.3,110,271.3z
		 M368.3,268.4c-0.1,0-0.3,0-0.4-0.1c-0.5-0.2-0.7-0.8-0.5-1.3c1.2-2.6,2.4-5.3,3.6-8.2c0.2-0.5,0.8-0.7,1.3-0.5s0.7,0.8,0.5,1.3
		c-1.3,2.9-2.5,5.6-3.6,8.3C369,268.2,368.6,268.4,368.3,268.4z M102.5,259.5c-0.3,0-0.7-0.2-0.9-0.5c-1.5-2.6-3.1-5.2-4.6-7.8
		c-0.3-0.5-0.1-1.1,0.4-1.4c0.5-0.3,1.1-0.1,1.4,0.4c1.5,2.6,3,5.2,4.5,7.8c0.3,0.5,0.1,1.1-0.3,1.4
		C102.8,259.4,102.7,259.5,102.5,259.5z M373.9,255.6c-0.1,0-0.3,0-0.4-0.1c-0.5-0.2-0.7-0.8-0.5-1.3c1.2-2.8,2.3-5.5,3.4-8.3
		c0.2-0.5,0.8-0.8,1.3-0.5c0.5,0.2,0.8,0.8,0.5,1.3c-1.1,2.8-2.3,5.6-3.4,8.3C374.6,255.3,374.3,255.6,373.9,255.6z M95.5,247.3
		c-0.4,0-0.7-0.2-0.9-0.5c-1.4-2.6-2.8-5.3-4.2-8c-0.3-0.5-0.1-1.1,0.4-1.3c0.5-0.3,1.1-0.1,1.3,0.4c1.4,2.7,2.8,5.3,4.2,7.9
		c0.3,0.5,0.1,1.1-0.4,1.4C95.8,247.3,95.7,247.3,95.5,247.3z M379.2,242.6c-0.1,0-0.3,0-0.4-0.1c-0.5-0.2-0.8-0.8-0.6-1.3
		c1.1-2.8,2.2-5.6,3.3-8.3c0.2-0.5,0.8-0.8,1.3-0.6s0.8,0.8,0.6,1.3c-1.1,2.8-2.2,5.6-3.3,8.3C379.9,242.4,379.6,242.6,379.2,242.6z
		 M89.1,234.9c-0.4,0-0.7-0.2-0.9-0.6c-1.3-2.7-2.6-5.4-3.9-8.1c-0.2-0.5,0-1.1,0.5-1.3s1.1,0,1.3,0.5c1.3,2.7,2.6,5.4,3.9,8.1
		c0.2,0.5,0,1.1-0.5,1.3C89.4,234.8,89.2,234.9,89.1,234.9z M384.4,229.6c-0.1,0-0.3,0-0.4-0.1c-0.5-0.2-0.8-0.8-0.6-1.3
		c1.1-2.8,2.2-5.6,3.4-8.4c0.2-0.5,0.8-0.8,1.3-0.6s0.8,0.8,0.6,1.3c-1.1,2.8-2.2,5.6-3.4,8.4C385.1,229.4,384.8,229.6,384.4,229.6z
		 M83.2,222.2c-0.4,0-0.7-0.2-0.9-0.6c-1.2-2.7-2.4-5.5-3.6-8.3c-0.2-0.5,0-1.1,0.5-1.3s1.1,0,1.3,0.5c1.2,2.8,2.4,5.5,3.6,8.2
		c0.2,0.5,0,1.1-0.5,1.3C83.4,222.2,83.3,222.2,83.2,222.2z M389.6,216.6c-0.1,0-0.3,0-0.4-0.1c-0.5-0.2-0.8-0.8-0.5-1.3
		c1.1-2.8,2.3-5.6,3.5-8.3c0.2-0.5,0.8-0.7,1.3-0.5s0.7,0.8,0.5,1.3c-1.2,2.8-2.3,5.5-3.5,8.3C390.4,216.4,390,216.6,389.6,216.6z
		 M77.7,209.3c-0.4,0-0.8-0.2-0.9-0.6c-1.1-2.7-2.2-5.6-3.3-8.4c-0.2-0.5,0.1-1.1,0.6-1.3s1.1,0.1,1.3,0.6c1.1,2.8,2.2,5.6,3.3,8.4
		c0.2,0.5,0,1.1-0.6,1.3C77.9,209.3,77.8,209.3,77.7,209.3z M395.1,203.7c-0.1,0-0.3,0-0.4-0.1c-0.5-0.2-0.7-0.8-0.5-1.3
		c1.2-2.9,2.5-5.6,3.7-8.2c0.2-0.5,0.8-0.7,1.3-0.5s0.7,0.8,0.5,1.3c-1.2,2.6-2.4,5.4-3.7,8.2C395.9,203.5,395.5,203.7,395.1,203.7z
		 M72.6,196.3c-0.4,0-0.8-0.3-0.9-0.7c-1-2.8-2-5.7-3-8.5c-0.2-0.5,0.1-1.1,0.6-1.3s1.1,0.1,1.3,0.6c1,2.8,2,5.7,3,8.5
		c0.2,0.5-0.1,1.1-0.6,1.3C72.9,196.2,72.8,196.3,72.6,196.3z M400.9,191c-0.1,0-0.3,0-0.4-0.1c-0.5-0.2-0.7-0.8-0.5-1.3
		c1.3-2.8,2.7-5.5,4-8.1c0.3-0.5,0.9-0.7,1.3-0.4c0.5,0.3,0.7,0.9,0.4,1.3c-1.3,2.6-2.7,5.3-4,8C401.6,190.8,401.3,191,400.9,191z
		 M68,183c-0.4,0-0.8-0.3-0.9-0.7c-0.9-2.8-1.9-5.7-2.7-8.6c-0.2-0.5,0.1-1.1,0.7-1.3c0.5-0.2,1.1,0.1,1.3,0.7
		c0.9,2.9,1.8,5.8,2.7,8.6c0.2,0.5-0.1,1.1-0.6,1.3C68.2,183,68.1,183,68,183z M407.3,178.5c-0.2,0-0.3,0-0.5-0.1
		c-0.5-0.3-0.7-0.9-0.4-1.4c1.5-2.7,3-5.4,4.4-7.9c0.3-0.5,0.9-0.6,1.4-0.4c0.5,0.3,0.6,0.9,0.4,1.4c-1.5,2.5-3,5.1-4.4,7.8
		C408,178.3,407.6,178.5,407.3,178.5z M63.9,169.6c-0.4,0-0.8-0.3-1-0.7c-0.8-2.9-1.7-5.8-2.5-8.7c-0.1-0.5,0.2-1.1,0.7-1.2
		c0.5-0.1,1.1,0.2,1.2,0.7c0.8,2.9,1.6,5.8,2.5,8.6c0.2,0.5-0.1,1.1-0.7,1.2C64,169.6,64,169.6,63.9,169.6z M414.3,166.4
		c-0.2,0-0.4,0-0.5-0.2c-0.5-0.3-0.6-0.9-0.3-1.4c1.6-2.6,3.3-5.2,5-7.6c0.3-0.5,0.9-0.6,1.4-0.3s0.6,0.9,0.3,1.4
		c-1.7,2.4-3.3,4.9-4.9,7.5C414.9,166.2,414.6,166.4,414.3,166.4z M60.1,156.1c-0.4,0-0.8-0.3-1-0.7c-0.8-2.9-1.5-5.9-2.2-8.8
		c-0.1-0.5,0.2-1.1,0.7-1.2c0.5-0.1,1.1,0.2,1.2,0.7c0.7,2.9,1.4,5.8,2.2,8.7c0.1,0.5-0.2,1.1-0.7,1.2
		C60.3,156.1,60.2,156.1,60.1,156.1z M422.1,154.8c-0.2,0-0.4-0.1-0.6-0.2c-0.4-0.3-0.5-1-0.2-1.4c1.8-2.5,3.7-4.8,5.6-7.1
		c0.4-0.4,1-0.5,1.4-0.1s0.5,1,0.1,1.4c-1.9,2.2-3.7,4.6-5.5,7C422.7,154.6,422.4,154.8,422.1,154.8z M430.9,143.9
		c-0.2,0-0.5-0.1-0.7-0.3c-0.4-0.4-0.5-1-0.1-1.4c2-2.3,4.1-4.5,6.2-6.6c0.4-0.4,1-0.4,1.4,0s0.4,1,0,1.4c-2.1,2-4.1,4.2-6.1,6.5
		C431.4,143.8,431.1,143.9,430.9,143.9z M56.8,142.5c-0.5,0-0.9-0.3-1-0.8c-0.7-2.9-1.3-5.9-1.9-8.8c-0.1-0.5,0.2-1.1,0.8-1.2
		c0.5-0.1,1.1,0.2,1.2,0.8c0.6,2.9,1.2,5.9,1.9,8.8c0.1,0.5-0.2,1.1-0.8,1.2C56.9,142.5,56.8,142.5,56.8,142.5z M440.7,133.9
		c-0.3,0-0.5-0.1-0.7-0.3c-0.4-0.4-0.3-1,0.1-1.4c2.2-2,4.5-4,6.9-5.9c0.4-0.3,1.1-0.3,1.4,0.2c0.3,0.4,0.3,1.1-0.2,1.4
		c-2.3,1.8-4.6,3.8-6.8,5.8C441.1,133.9,440.9,133.9,440.7,133.9z M53.9,128.8c-0.5,0-0.9-0.3-1-0.8c-0.6-3-1.1-6-1.6-8.9
		c-0.1-0.5,0.3-1.1,0.8-1.2s1.1,0.3,1.2,0.8c0.5,2.9,1,5.9,1.6,8.8c0.1,0.5-0.2,1.1-0.8,1.2C54,128.8,53.9,128.8,53.9,128.8z
		 M451.5,125.1c-0.3,0-0.6-0.1-0.8-0.4c-0.3-0.4-0.2-1.1,0.2-1.4c2.4-1.8,4.9-3.5,7.5-5c0.5-0.3,1.1-0.1,1.4,0.3
		c0.3,0.5,0.1,1.1-0.3,1.4c-2.5,1.6-5,3.2-7.4,5C451.9,125.1,451.7,125.1,451.5,125.1z M463.2,117.6c-0.3,0-0.7-0.2-0.9-0.5
		c-0.3-0.5-0.1-1.1,0.4-1.4c2.6-1.5,5.3-2.9,8-4.2c0.5-0.2,1.1,0,1.3,0.5c0.2,0.5,0,1.1-0.5,1.3c-2.7,1.3-5.3,2.7-7.9,4.1
		C463.5,117.5,463.4,117.6,463.2,117.6z M51.4,115c-0.5,0-0.9-0.4-1-0.8c-0.5-3-0.9-6-1.3-9c-0.1-0.5,0.3-1,0.9-1.1
		c0.5-0.1,1,0.3,1.1,0.9c0.4,2.9,0.8,5.9,1.3,8.9c0.1,0.5-0.3,1.1-0.8,1.1C51.5,115,51.5,115,51.4,115z M475.7,111.4
		c-0.4,0-0.8-0.2-0.9-0.6c-0.2-0.5,0-1.1,0.5-1.3c2.7-1.2,5.6-2.3,8.4-3.3c0.5-0.2,1.1,0.1,1.3,0.6c0.2,0.5-0.1,1.1-0.6,1.3
		c-2.8,1-5.6,2.1-8.3,3.2C476,111.4,475.8,111.4,475.7,111.4z M488.8,106.6c-0.4,0-0.8-0.3-1-0.7c-0.2-0.5,0.1-1.1,0.7-1.3
		c2.8-0.9,5.8-1.7,8.7-2.4c0.5-0.1,1.1,0.2,1.2,0.7s-0.2,1.1-0.7,1.2c-2.9,0.7-5.8,1.5-8.6,2.4C489,106.6,488.9,106.6,488.8,106.6z
		 M502.3,103c-0.5,0-0.9-0.3-1-0.8s0.2-1.1,0.8-1.2c2.9-0.6,5.9-1.2,8.9-1.7c0.5-0.1,1.1,0.3,1.1,0.8c0.1,0.5-0.3,1.1-0.8,1.1
		c-3,0.5-5.9,1-8.8,1.6C502.4,103,502.4,103,502.3,103z M49.6,101.1c-0.5,0-0.9-0.4-1-0.9c-0.4-3.1-0.6-6.1-0.9-9
		c0-0.6,0.4-1,0.9-1.1c0.6,0,1,0.4,1.1,0.9c0.2,2.9,0.5,5.9,0.9,8.9C50.7,100.4,50.3,100.9,49.6,101.1
		C49.6,101.1,49.6,101.1,49.6,101.1z M48.4,87.1c-0.5,0-1-0.4-1-0.9c-0.2-3.2-0.3-6.3-0.3-9.1c0-0.6,0.4-1,1-1s1,0.4,1,1
		c0,2.8,0.1,5.8,0.3,9C49.4,86.6,49,87.1,48.4,87.1L48.4,87.1z M48.1,73.1L48.1,73.1c-0.6,0-1-0.5-1-1c0.1-3.5,0.4-6.5,0.8-9.1
		c0.1-0.5,0.6-0.9,1.2-0.8c0.5,0.1,0.9,0.6,0.8,1.2c-0.4,2.5-0.7,5.4-0.8,8.8C49.1,72.7,48.7,73.1,48.1,73.1z"/>
</g>
<g>
	<path class="st0" d="M447.9,349.5l2.7-4.3c-1-1.3-2.2-2.5-3.5-3.7l-4.5,2.5l-4.8-2.9l0.1-5.1c-1.5-0.6-3.1-1.1-4.8-1.4l-2.7,4.3
		l-5.7-0.2l-2.5-4.5c-0.1,0-0.2,0-0.4,0.1c-1.5,0.3-3.1,0.6-4.5,1.1l-0.1,5.1l-5,2.7l-4.3-2.7c-1.3,1-2.5,2.2-3.7,3.5l2.5,4.5
		l-2.9,4.8l-5.1-0.1c-0.6,1.5-1.1,3.1-1.4,4.8l4.3,2.7l-0.2,5.7l-4.5,2.5c0.3,1.7,0.6,3.3,1.1,4.8l5.1,0.1l2.7,5l-2.7,4.3
		c1,1.3,2.2,2.5,3.5,3.7l4.5-2.5l4.8,2.9l-0.1,5.1c1.5,0.6,3.1,1.1,4.8,1.4l2.7-4.3l5.7,0.2l2.5,4.5c0.1,0,0.2,0,0.4-0.1
		c1.5-0.3,3.1-0.6,4.5-1.1l0.1-5.1l5-2.7l4.3,2.7c1.3-1,2.5-2.2,3.7-3.5l-2.5-4.5l2.9-4.8l5.1,0.1c0.6-1.5,1.1-3.1,1.4-4.8l-4.3-2.7
		l0.2-5.7l4.5-2.5c-0.3-1.7-0.6-3.3-1.1-4.8l-5.1-0.1L447.9,349.5z M435.1,378.6c-8.1,4.4-18.3,1.5-22.7-6.5
		c-4.4-8.1-1.5-18.3,6.6-22.8c8.1-4.4,18.3-1.5,22.7,6.5C446.1,363.9,443.1,374.2,435.1,378.6L435.1,378.6z"/>
</g>
<g>
	<path class="st0" d="M323.2,31.6l1.2-3.4c-0.9-0.7-1.9-1.4-3-2.1l-2.8,2.4l-3.8-1.3l-0.7-3.6c-1.2-0.2-2.4-0.3-3.6-0.2l-1.2,3.4
		l-4,0.8l-2.4-2.8c-0.1,0-0.1,0-0.3,0.1c-1,0.4-2.1,0.9-3,1.5l0.7,3.6l-3.1,2.7l-3.4-1.2c-0.7,0.9-1.4,1.9-2.1,3l2.4,2.8l-1.3,3.8
		l-3.6,0.7c-0.2,1.2-0.3,2.4-0.2,3.6l3.4,1.2l0.8,4l-2.8,2.4c0.5,1.2,0.9,2.2,1.5,3.2l3.6-0.7l2.7,3.1L297,62c0.9,0.7,1.9,1.5,3,2.1
		l2.8-2.4l3.8,1.3l0.7,3.6c1.2,0.2,2.4,0.3,3.6,0.2l1.2-3.4l4-0.8l2.4,2.8c0.1,0,0.1,0,0.3-0.1c1-0.4,2.1-0.9,3-1.5l-0.7-3.6
		l3.1-2.7l3.4,1.2c0.7-0.9,1.4-1.9,2.1-3l-2.4-2.8l1.3-3.8l3.6-0.7c0.2-1.2,0.3-2.4,0.2-3.6l-3.4-1.2l-0.8-4l2.8-2.4
		c-0.5-1.2-0.9-2.2-1.5-3.2l-3.6,0.7L323.2,31.6z M318.6,54.1c-5,4.4-12.6,3.9-17-1.1s-3.9-12.6,1.2-17c5-4.4,12.6-3.9,17,1.1
		C324.1,42,323.6,49.7,318.6,54.1L318.6,54.1z"/>
</g>
<g>
	<path class="st0" d="M389.3,349.7c-0.9-1.6-1.9-3.2-3-4.7l-5.3,1.6l-4.6-4.2l1.2-5.5c-1.5-1-3.2-1.8-4.9-2.6l-3.8,4.2l-6.1-1.3
		l-1.7-5.4c-1.9-0.1-3.7,0-5.6,0.2l-1.2,5.5l-6,1.9l-4.2-3.8c-1.6,0.9-3.2,1.9-4.7,3l1.6,5.3l-4.2,4.6l-5.5-1.2
		c-1,1.5-1.8,3.2-2.6,4.9l4.2,3.8l-1.3,6.1l-5.4,1.7c-0.1,1.9,0,3.7,0.2,5.6l5.5,1.2l1.9,6l-3.9,4.1c0.9,1.6,1.9,3.2,3,4.7l5.4-1.7
		l4.6,4.2l-1.2,5.5c1.5,1,3.2,1.8,4.9,2.6l3.8-4.2l6.1,1.3l1.6,5.5c1.9,0.1,3.7,0,5.6-0.2l1.2-5.5l6-1.9l4.2,3.8
		c1.6-0.9,3.2-1.9,4.7-3l-1.6-5.3l4.2-4.6l5.5,1.2c1-1.5,1.8-3.2,2.5-4.9l-4.2-3.8l1.3-6.1l5.4-1.7c0.1-1.9,0-3.7-0.2-5.6l-5.5-1.2
		l-1.9-6L389.3,349.7z M368.6,381.3c-9,5-20.3,1.7-25.3-7.3s-1.7-20.3,7.3-25.3s20.3-1.7,25.3,7.3
		C380.9,365.1,377.6,376.4,368.6,381.3L368.6,381.3z"/>
</g>
<g>
	<path class="st0" d="M414.6,303.8l2.7-3.4c-0.8-1.2-1.6-2.4-2.6-3.5l-4.1,1.6l-3.8-3.1l0.7-4.3c-1.3-0.7-2.6-1.3-3.9-1.8l-2.7,3.4
		l-4.8-0.8l-1.6-4.1h-0.3c-1.4,0.1-2.7,0.2-4,0.5l-0.7,4.3l-4.5,1.7l-3.4-2.8c-1.2,0.8-2.4,1.6-3.5,2.5l1.6,4.1l-3.1,3.9l-4.3-0.7
		c-0.7,1.3-1.3,2.6-1.8,3.9l3.4,2.7l-0.8,4.8l-4.1,1.6c0,1.4,0.2,2.9,0.4,4.4l4.3,0.7l1.7,4.5l-2.7,3.4c0.8,1.2,1.6,2.4,2.6,3.5
		l4.1-1.6l3.8,3.1l-0.7,4.3c1.3,0.7,2.6,1.3,3.9,1.8l2.7-3.4l4.8,0.8l1.6,4.1h0.3c1.4-0.1,2.7-0.2,4-0.5l0.7-4.3l4.5-1.7l3.4,2.7
		c1.2-0.8,2.4-1.6,3.5-2.6l-1.6-4.1l3.1-3.8l4.3,0.7c0.7-1.3,1.3-2.6,1.8-3.9l-3.4-2.7l0.8-4.8l4.1-1.6c0-1.4-0.2-2.9-0.4-4.4
		l-4.3-0.7L414.6,303.8z M402.2,326.8c-7.2,4-16.2,1.4-20.2-5.8c-4-7.2-1.4-16.2,5.8-20.2s16.2-1.4,20.2,5.8
		C412.1,313.8,409.5,322.8,402.2,326.8L402.2,326.8z"/>
</g>
<g>
	<path class="st0" d="M175.1,176.8c-0.5-0.8-1-1.7-1.6-2.5l-2.8,0.9l-2.5-2.2l0.6-2.9c-0.8-0.5-1.7-1-2.6-1.3l-2,2.2l-3.2-0.7
		l-0.9-2.9c-1,0-2,0-2.9,0.2l-0.6,2.9l-3.2,1l-2.2-2c-0.8,0.5-1.7,1-2.5,1.6l0.9,2.8l-2.2,2.5l-2.9-0.6c-0.5,0.8-1,1.7-1.3,2.6
		l2.2,2l-0.7,3.2l-2.9,0.9c0,1,0,2,0.2,2.9l2.9,0.6l1,3.2l-2,2.2c0.5,0.8,1,1.7,1.6,2.5l2.9-0.9l2.5,2.2l-0.6,2.9
		c0.8,0.5,1.7,1,2.6,1.3l2-2.2l3.2,0.7l0.9,2.9c1,0,2,0,2.9-0.2l0.6-2.9l3.2-1l2.2,2c0.8-0.5,1.7-1,2.5-1.6l-0.9-2.8l2.2-2.5
		l2.9,0.6c0.5-0.8,1-1.7,1.3-2.6l-2.2-2l0.7-3.2l2.9-0.9c0-1,0-2-0.2-2.9l-2.9-0.6l-1-3.2L175.1,176.8z M164.3,193.6
		c-4.7,2.7-10.7,1-13.4-3.7s-1-10.7,3.7-13.4s10.7-1,13.4,3.7C170.7,185,169.1,191,164.3,193.6L164.3,193.6z"/>
</g>
<g>
	<path class="st0" d="M188.2,152.3l1.4-1.8c-0.4-0.6-0.9-1.2-1.4-1.8l-2.1,0.9l-2-1.6l0.3-2.3c-0.7-0.4-1.4-0.7-2.1-0.9l-1.4,1.8
		l-2.5-0.4l-0.9-2.1h-0.2c-0.7,0.1-1.4,0.1-2.1,0.3l-0.3,2.3l-2.4,0.9l-1.8-1.5c-0.6,0.4-1.3,0.8-1.9,1.3l0.9,2.1l-1.6,2.1l-2.3-0.3
		c-0.4,0.7-0.7,1.4-0.9,2.1l1.8,1.4l-0.4,2.5l-2.1,0.9c0,0.7,0.1,1.5,0.3,2.3l2.3,0.3l0.9,2.4l-1.4,1.8c0.4,0.6,0.9,1.2,1.4,1.8
		l2.1-0.9l2,1.6l-0.3,2.3c0.7,0.4,1.4,0.7,2.1,0.9l1.4-1.8l2.5,0.4l0.9,2.1h0.2c0.7-0.1,1.4-0.1,2.1-0.3l0.3-2.3l2.4-0.9l1.8,1.4
		c0.6-0.4,1.3-0.8,1.8-1.4l-0.9-2.1l1.6-2l2.3,0.3c0.4-0.7,0.7-1.4,0.9-2.1l-1.8-1.4l0.4-2.5l2.1-0.9c0-0.7-0.1-1.5-0.3-2.3
		l-2.3-0.3L188.2,152.3z M181.8,164.6c-3.8,2.2-8.6,0.8-10.7-3c-2.2-3.8-0.8-8.6,3-10.7s8.6-0.8,10.7,3
		C186.9,157.6,185.6,162.4,181.8,164.6L181.8,164.6z"/>
</g>
<g>
	<path class="st0" d="M600.8,280.9c-0.5-0.8-1-1.7-1.6-2.5l-2.8,0.9l-2.5-2.2l0.6-2.9c-0.8-0.5-1.7-1-2.6-1.3l-2,2.2l-3.2-0.7
		l-0.9-2.9c-1,0-2,0-2.9,0.2l-0.6,2.9l-3.2,1l-2.2-2c-0.8,0.5-1.7,1-2.5,1.6l0.9,2.8l-2.2,2.5l-2.9-0.6c-0.5,0.8-1,1.7-1.3,2.6
		l2.2,2l-0.7,3.2l-2.9,0.9c0,1,0,2,0.2,2.9l2.9,0.6l1,3.2l-2,2.2c0.5,0.8,1,1.7,1.6,2.5l2.9-0.9l2.5,2.2l-0.6,2.9
		c0.8,0.5,1.7,1,2.6,1.3l2-2.2l3.2,0.7l0.9,2.9c1,0,2,0,2.9-0.2l0.6-2.9l3.2-1l2.2,2c0.8-0.5,1.7-1,2.5-1.6l-0.9-2.8l2.2-2.5
		l2.9,0.6c0.5-0.8,1-1.7,1.3-2.6l-2.2-2l0.7-3.2l2.9-0.9c0-1,0-2-0.2-2.9l-2.9-0.6l-1-3.2L600.8,280.9z M590,297.8
		c-4.7,2.7-10.7,1-13.4-3.7s-1-10.7,3.7-13.4c4.7-2.7,10.7-1,13.4,3.7S594.7,295.1,590,297.8L590,297.8z"/>
</g>
<g>
	<path class="st0" d="M613.9,256.4l1.4-1.8c-0.4-0.6-0.9-1.2-1.4-1.8l-2.1,0.9l-2-1.6l0.3-2.3c-0.7-0.4-1.4-0.7-2.1-0.9l-1.4,1.8
		l-2.5-0.4l-0.9-2.1H603c-0.7,0.1-1.4,0.1-2.1,0.3l-0.3,2.3l-2.4,0.9l-1.8-1.5c-0.6,0.4-1.3,0.8-1.9,1.3l0.9,2.1l-1.6,2.1l-2.3-0.3
		c-0.4,0.7-0.7,1.4-0.9,2.1l1.8,1.4l-0.4,2.5l-2.1,0.9c0,0.7,0.1,1.5,0.3,2.3l2.3,0.3l0.9,2.4l-1.4,1.8c0.4,0.6,0.9,1.2,1.4,1.8
		l2.1-0.9l2,1.6l-0.3,2.3c0.7,0.4,1.4,0.7,2.1,0.9l1.4-1.8l2.5,0.4l0.9,2.1h0.2c0.7-0.1,1.4-0.1,2.1-0.3l0.3-2.3l2.4-0.9l1.8,1.4
		c0.6-0.4,1.3-0.8,1.8-1.4l-0.9-2.1l1.6-2l2.3,0.3c0.4-0.7,0.7-1.4,0.9-2.1l-1.8-1.4l0.4-2.5l2.1-0.9c0-0.7-0.1-1.5-0.3-2.3
		l-2.3-0.3L613.9,256.4z M607.5,268.7c-3.8,2.2-8.6,0.8-10.7-3c-2.2-3.8-0.8-8.6,3-10.7c3.8-2.2,8.6-0.8,10.7,3
		C612.6,261.8,611.3,266.5,607.5,268.7L607.5,268.7z"/>
</g>
<g>
	<path class="st0" d="M450.3,179.4c1,0.2,2,0.3,2.9,0.3l1.1-2.8l3.3-0.5l1.9,2.3c0.9-0.3,1.8-0.7,2.7-1.2l-0.5-3l2.6-2.1l2.8,1.1
		c0.6-0.8,1.2-1.5,1.7-2.4l-1.9-2.3l1.2-3.1l3-0.5c0.2-1,0.3-2,0.3-2.9l-2.8-1.1l-0.5-3.3l2.3-1.9c-0.3-0.9-0.7-1.8-1.2-2.7l-3,0.5
		l-2.1-2.6l1.1-2.8c-0.8-0.6-1.5-1.2-2.4-1.7l-2.3,1.9l-3.1-1.2l-0.4-3c-1-0.2-2-0.3-2.9-0.3l-1.1,2.8l-3.3,0.5l-1.9-2.3
		c-0.9,0.3-1.8,0.7-2.7,1.2l0.5,3l-2.6,2.1l-2.8-1.1c-0.6,0.8-1.2,1.5-1.7,2.4l1.9,2.3l-1.2,3.1l-3,0.5c-0.2,1-0.3,2-0.3,2.9
		l2.8,1.1l0.5,3.3l-2.3,1.9c0.3,0.9,0.7,1.8,1.2,2.7l3-0.5l2.1,2.6l-1.1,2.8c0.8,0.6,1.5,1.2,2.4,1.7l2.3-1.9l3.1,1.2L450.3,179.4z
		 M443.8,160.5c0.9-5.4,5.9-9,11.3-8.1s9,5.9,8.1,11.3c-0.9,5.4-5.9,9-11.3,8.1C446.6,170.9,443,165.8,443.8,160.5L443.8,160.5z"/>
</g>
<g>
	<path class="st0" d="M461.1,205l0.5,2.2c0.8,0.1,1.5,0.1,2.3,0.1l0.7-2.2l2.5-0.6l1.6,1.7c0.7-0.3,1.4-0.6,2-1.1l-0.5-2.2l1.9-1.8
		l2.2,0.7l0.1-0.1c0.4-0.6,0.8-1.2,1.1-1.8l-1.6-1.7l0.8-2.4l2.3-0.5c0.1-0.8,0.1-1.5,0.1-2.3l-2.2-0.7l-0.6-2.6l1.7-1.6
		c-0.3-0.7-0.6-1.4-1.1-2l-2.2,0.5l-1.8-1.9l0.7-2.2c-0.6-0.5-1.2-0.9-2-1.2l-1.7,1.6l-2.4-0.8l-0.5-2.2c-0.8-0.1-1.5-0.1-2.3-0.1
		L462,182l-2.5,0.6l-1.6-1.7c-0.7,0.3-1.4,0.6-2,1.1l0.5,2.2l-1.9,1.8l-2.2-0.7l-0.1,0.1c-0.4,0.6-0.8,1.2-1.1,1.8l1.6,1.7l-0.8,2.4
		l-2.2,0.5c-0.1,0.8-0.1,1.5-0.1,2.3l2.2,0.7l0.6,2.5l-1.7,1.6c0.3,0.7,0.6,1.4,1.1,2l2.2-0.5l1.8,1.9l-0.7,2.2
		c0.6,0.5,1.2,0.9,2,1.2l1.7-1.6L461.1,205z M455.6,192.3c0.7-4.3,4.7-7.2,9-6.5s7.2,4.7,6.5,9s-4.7,7.2-9,6.5
		C457.8,200.6,454.9,196.6,455.6,192.3L455.6,192.3z"/>
</g>
<g>
	<path class="st0" d="M156.8,438.7c0.7-0.7,1.4-1.4,2-2.2l-1.6-2.5l1.5-3l3-0.1c0.3-0.9,0.5-1.9,0.6-2.9l-2.7-1.4l-0.2-3.3l2.5-1.6
		c-0.2-1-0.5-1.9-0.9-2.8l-2.9,0.2l-1.8-2.8l1.4-2.7c-0.7-0.7-1.4-1.4-2.2-2l-2.5,1.6l-3-1.5l-0.1-3c-0.9-0.3-1.9-0.5-2.9-0.6
		l-1.4,2.7l-3.3,0.2l-1.6-2.5c-1,0.2-1.9,0.5-2.8,0.9l0.1,3l-2.8,1.8l-2.6-1.4c-0.7,0.7-1.4,1.4-2,2.2l1.6,2.5l-1.5,3l-3,0.1
		c-0.3,0.9-0.5,1.9-0.6,2.9l2.7,1.4l0.2,3.3l-2.6,1.6c0.2,1,0.5,1.9,0.9,2.8l3-0.1l1.8,2.8l-1.4,2.7c0.7,0.7,1.4,1.4,2.2,2l2.5-1.6
		l3,1.5l0.1,3c0.9,0.3,1.9,0.5,2.9,0.6l1.4-2.7l3.3-0.2l1.6,2.5c1-0.2,1.9-0.5,2.8-0.9l-0.1-3l2.8-1.8L156.8,438.7z M137.7,432.6
		c-3.8-3.9-3.7-10.1,0.2-13.9s10.1-3.7,13.9,0.2c3.8,3.9,3.7,10.1-0.2,13.9C147.7,436.5,141.5,436.4,137.7,432.6L137.7,432.6z"/>
</g>
<g>
	<path class="st0" d="M183.8,445.1l2.1,0.9c0.5-0.6,1-1.2,1.4-1.8l-1.4-1.8l1-2.4l2.3-0.3c0.2-0.8,0.3-1.5,0.3-2.3l-2.1-0.9
		l-0.3-2.6l1.8-1.4v-0.2c-0.2-0.7-0.5-1.4-0.8-2l-2.3,0.3l-1.5-2.1l1-2.1c-0.6-0.5-1.1-1-1.8-1.5l-1.8,1.4l-2.4-1L179,423
		c-0.8-0.2-1.5-0.3-2.3-0.3l-0.9,2.1l-2.6,0.3l-1.4-1.8c-0.7,0.2-1.4,0.5-2.2,0.8l0.3,2.3l-2.1,1.5l-2.1-0.9c-0.5,0.6-1,1.2-1.4,1.8
		l1.4,1.8l-1,2.4l-2.3,0.3c-0.2,0.8-0.3,1.5-0.3,2.3l2.1,0.9l0.3,2.6l-1.8,1.4v0.2c0.2,0.7,0.5,1.4,0.8,2l2.3-0.3l1.5,2.1l-0.9,2.1
		c0.6,0.5,1.1,1,1.8,1.4l1.8-1.4l2.4,1l0.3,2.3c0.8,0.2,1.5,0.3,2.3,0.3l0.9-2.1l2.6-0.3l1.4,1.8c0.7-0.2,1.4-0.5,2.2-0.8l-0.3-2.3
		L183.8,445.1z M170.3,442c-3.1-3.1-3-8.1,0.1-11.1c3.1-3.1,8.1-3,11.1,0.1c3.1,3.1,3,8.1-0.1,11.1
		C178.3,445.2,173.3,445.1,170.3,442L170.3,442z"/>
</g>
<g>
	<path class="st0" d="M272.9,47.4l0.5,2.2c0.8,0.1,1.5,0.1,2.3,0.1l0.7-2.2l2.5-0.6l1.6,1.7c0.7-0.3,1.4-0.6,2-1.1l-0.5-2.2l1.9-1.8
		l2.2,0.7l0.1-0.1c0.4-0.6,0.8-1.2,1.1-1.8l-1.6-1.7l0.8-2.4l2.3-0.5c0.1-0.8,0.1-1.5,0.1-2.3l-2.2-0.7l-0.6-2.6l1.7-1.6
		c-0.3-0.7-0.6-1.4-1.1-2l-2.2,0.5l-1.8-1.9l0.7-2.2c-0.6-0.5-1.2-0.9-2-1.2l-1.7,1.6l-2.4-0.8l-0.5-2.2c-0.8-0.1-1.5-0.1-2.3-0.1
		l-0.7,2.2l-2.5,0.6l-1.6-1.7c-0.7,0.3-1.4,0.6-2,1.1l0.5,2.2l-1.9,1.8l-2.2-0.7l-0.1,0.1c-0.4,0.6-0.8,1.2-1.1,1.8l1.6,1.7
		l-0.8,2.4l-2.2,0.5c-0.1,0.8-0.1,1.5-0.1,2.3l2.2,0.7l0.6,2.5l-1.7,1.6c0.3,0.7,0.6,1.4,1.1,2l2.2-0.5l1.8,1.9l-0.7,2.2
		c0.6,0.5,1.2,0.9,2,1.2l1.7-1.6L272.9,47.4z M267.4,34.7c0.7-4.3,4.7-7.2,9-6.5s7.2,4.7,6.5,9s-4.7,7.2-9,6.5S266.7,39,267.4,34.7
		L267.4,34.7z"/>
</g>
<g>
	
		<ellipse transform="matrix(4.531443e-02 -0.999 0.999 4.531443e-02 -139.7659 310.7504)" class="st3" cx="92.7" cy="228.5" rx="43.7" ry="43.7"/>
</g>
<g>
	<path class="st4" d="M271.9,267.2h-63.4c-6.6,0-12-5.4-12-12v-53.6c0-6.6,5.4-12,12-12h63.4c6.6,0,12,5.4,12,12v53.6
		C283.9,261.8,278.5,267.2,271.9,267.2z"/>
</g>
<g>
	<path class="st5" d="M423.4,267.2H360c-6.6,0-12-5.4-12-12v-53.6c0-6.6,5.4-12,12-12h63.4c6.6,0,12,5.4,12,12v53.6
		C435.4,261.8,430,267.2,423.4,267.2z"/>
</g>
<g>
	<path class="st6" d="M268.9,391.2h-63.4c-6.6,0-12-5.4-12-12v-53.6c0-6.6,5.4-12,12-12h63.4c6.6,0,12,5.4,12,12v53.6
		C280.9,385.8,275.5,391.2,268.9,391.2z"/>
</g>
<g>
	<path class="st3" d="M271.9,144.4h-63.4c-6.6,0-12-5.4-12-12V78.8c0-6.6,5.4-12,12-12h63.4c6.6,0,12,5.4,12,12v53.6
		C283.9,139,278.5,144.4,271.9,144.4z"/>
</g>
<g>
	<path class="st4" d="M124.4,395.2H61c-6.6,0-12-5.4-12-12v-53.6c0-6.6,5.4-12,12-12h63.4c6.6,0,12,5.4,12,12v53.6
		C136.4,389.8,131,395.2,124.4,395.2z"/>
</g>
<g>
	<path class="st4" d="M567.9,144.1h-63.4c-6.6,0-12-5.4-12-12V78.5c0-6.6,5.4-12,12-12h63.4c6.6,0,12,5.4,12,12v53.6
		C579.9,138.7,574.5,144.1,567.9,144.1z"/>
</g>
<g>
	<path class="st3" d="M567.8,391.2h-63.4c-6.6,0-12-5.4-12-12v-53.6c0-6.6,5.4-12,12-12h63.4c6.6,0,12,5.4,12,12v53.6
		C579.8,385.8,574.4,391.2,567.8,391.2z"/>
</g>
<g>
	<path class="st6" d="M544.2,186.9h-16.3c-5.8,0-11.4,2.3-15.5,6.4l-11.6,11.6c-4.1,4.1-6.4,9.7-6.4,15.5v16.3
		c0,5.8,2.3,11.4,6.4,15.5l11.6,11.6c4.1,4.1,9.7,6.4,15.5,6.4h16.3c5.8,0,11.4-2.3,15.5-6.4l11.6-11.6c4.1-4.1,6.4-9.7,6.4-15.5
		v-16.3c0-5.8-2.3-11.4-6.4-15.5l-11.6-11.6C555.6,189.2,550,186.9,544.2,186.9z"/>
</g>
<g>
	<g id="XMLID_1_">
		<path class="st7" d="M181.9,238.9c-0.3,0-0.6-0.1-0.8-0.3c-0.4-0.4-0.3-1,0.1-1.4l7.4-6.5l-7.4-6.5c-0.4-0.4-0.5-1-0.1-1.4
			s1-0.5,1.4-0.1l8.3,7.3c0.2,0.2,0.3,0.5,0.3,0.8s-0.1,0.6-0.3,0.8l-8.3,7.3C182.3,238.8,182.1,238.9,181.9,238.9z"/>
	</g>
	<g>
		<path class="st7" d="M190.1,231.6h-46.8c-0.6,0-1-0.4-1-1s0.4-1,1-1h46.8c0.6,0,1,0.4,1,1S190.7,231.6,190.1,231.6z"/>
	</g>
	<g id="XMLID_10_">
		<path class="st7" d="M331,238.9c-0.3,0-0.6-0.1-0.8-0.3c-0.4-0.4-0.3-1,0.1-1.4l7.4-6.5l-7.4-6.5c-0.4-0.4-0.5-1-0.1-1.4
			s1-0.5,1.4-0.1l8.3,7.3c0.2,0.2,0.3,0.5,0.3,0.8s-0.1,0.6-0.3,0.8l-8.3,7.3C331.5,238.8,331.3,238.9,331,238.9z"/>
	</g>
	<g>
		<path class="st7" d="M339.3,231.6h-46.8c-0.6,0-1-0.4-1-1s0.4-1,1-1h46.8c0.6,0,1,0.4,1,1S339.8,231.6,339.3,231.6z"/>
	</g>
	<g id="XMLID_115_">
		<path class="st7" d="M247.2,159.7c-0.3,0-0.6-0.1-0.8-0.3l-6.5-7.4l-6.5,7.4c-0.4,0.4-1,0.5-1.4,0.1s-0.5-1-0.1-1.4l7.3-8.3
			c0.4-0.4,1.1-0.4,1.5,0l7.3,8.3c0.4,0.4,0.3,1-0.1,1.4C247.7,159.6,247.4,159.7,247.2,159.7z"/>
	</g>
	<g>
		<path class="st7" d="M239.9,183c-0.6,0-1-0.4-1-1v-31.5c0-0.6,0.4-1,1-1s1,0.4,1,1V182C240.9,182.6,240.5,183,239.9,183z"/>
	</g>
	<g id="XMLID_116_">
		<path class="st7" d="M543.3,159.7c-0.3,0-0.6-0.1-0.8-0.3L536,152l-6.5,7.4c-0.4,0.4-1,0.5-1.4,0.1s-0.5-1-0.1-1.4l7.3-8.3
			c0.4-0.4,1.1-0.4,1.5,0l7.3,8.3c0.4,0.4,0.3,1-0.1,1.4C543.8,159.6,543.6,159.7,543.3,159.7z"/>
	</g>
	<g>
		<path class="st7" d="M536.1,183c-0.6,0-1-0.4-1-1v-31.5c0-0.6,0.4-1,1-1s1,0.4,1,1V182C537.1,182.6,536.6,183,536.1,183z"/>
	</g>
	<g id="XMLID_117_">
		<path class="st7" d="M536.1,310.1c-0.3,0-0.6-0.1-0.8-0.3l-7.3-8.3c-0.4-0.4-0.3-1,0.1-1.4c0.4-0.4,1-0.3,1.4,0.1l6.5,7.4l6.5-7.4
			c0.4-0.4,1-0.5,1.4-0.1s0.5,1,0.1,1.4l-7.3,8.3C536.6,310,536.3,310.1,536.1,310.1z"/>
	</g>
	<g>
		<path class="st7" d="M536.1,310.1c-0.6,0-1-0.4-1-1v-31.5c0-0.6,0.4-1,1-1s1,0.4,1,1v31.5C537.1,309.6,536.6,310.1,536.1,310.1z"
			/>
	</g>
	<g id="XMLID_106_">
		<path class="st7" d="M480,238.9c-0.3,0-0.6-0.1-0.8-0.3c-0.4-0.4-0.3-1,0.1-1.4l7.4-6.5l-7.4-6.5c-0.4-0.4-0.5-1-0.1-1.4
			s1-0.5,1.4-0.1l8.3,7.3c0.2,0.2,0.3,0.5,0.3,0.8s-0.1,0.6-0.3,0.8l-8.3,7.3C480.5,238.8,480.3,238.9,480,238.9z"/>
	</g>
	<g>
		<path class="st7" d="M488.3,231.6h-46.8c-0.6,0-1-0.4-1-1s0.4-1,1-1h46.8c0.6,0,1,0.4,1,1S488.9,231.6,488.3,231.6z"/>
	</g>
	<g id="XMLID_3_">
		<path class="st7" d="M181.4,313.1L181.4,313.1l-11.1-0.7c-0.6,0-1-0.5-0.9-1.1c0-0.6,0.5-1,1.1-0.9l9.9,0.6l-0.6-9.9
			c0-0.6,0.4-1,0.9-1.1c0.5,0,1,0.4,1.1,0.9l0.7,11c0,0.3-0.1,0.6-0.3,0.8C181.9,313,181.7,313.1,181.4,313.1z"/>
	</g>
	<g>
		<path class="st7" d="M181.4,313.1c-0.3,0-0.5-0.1-0.7-0.3l-48-48c-0.4-0.4-0.4-1,0-1.4s1-0.4,1.4,0l48,48c0.4,0.4,0.4,1,0,1.4
			C181.9,313,181.7,313.1,181.4,313.1z"/>
	</g>
	<g id="XMLID_2_">
		<path class="st7" d="M91.3,306.9c-0.3,0-0.6-0.1-0.8-0.3l-7.3-8.3c-0.4-0.4-0.3-1,0.1-1.4s1-0.3,1.4,0.1l6.5,7.4l6.5-7.4
			c0.4-0.4,1-0.5,1.4-0.1s0.5,1,0.1,1.4l-7.3,8.3C91.8,306.8,91.6,306.9,91.3,306.9z"/>
	</g>
	<g>
		<path class="st7" d="M91.3,306.9c-0.6,0-1-0.4-1-1v-25.2c0-0.6,0.4-1,1-1s1,0.4,1,1v25.2C92.3,306.5,91.8,306.9,91.3,306.9z"/>
	</g>
</g>
<g>
	<path class="st8" d="M78.8,220.1H74c-1.3,0-2.3-1-2.3-2.3V213c0-1.3,1-2.3,2.3-2.3h4.8c1.3,0,2.3,1,2.3,2.3v4.8
		C81.1,219.1,80.1,220.1,78.8,220.1z M74,212.7c-0.2,0-0.3,0.1-0.3,0.3v4.8c0,0.2,0.1,0.3,0.3,0.3h4.8c0.2,0,0.3-0.1,0.3-0.3V213
		c0-0.2-0.1-0.3-0.3-0.3H74z"/>
</g>
<g>
	<path class="st8" d="M110.9,220.1H88.4c-1.3,0-2.3-1-2.3-2.3V213c0-1.3,1-2.3,2.3-2.3H111c1.3,0,2.3,1,2.3,2.3v4.8
		C113.3,219.1,112.2,220.1,110.9,220.1z M88.4,212.7c-0.2,0-0.3,0.1-0.3,0.3v4.8c0,0.2,0.1,0.3,0.3,0.3H111c0.2,0,0.3-0.1,0.3-0.3
		V213c0-0.2-0.1-0.3-0.3-0.3H88.4z"/>
</g>
<g>
	<path class="st8" d="M78.8,234.1H74c-1.3,0-2.3-1-2.3-2.3V227c0-1.3,1-2.3,2.3-2.3h4.8c1.3,0,2.3,1,2.3,2.3v4.8
		C81.1,233,80.1,234.1,78.8,234.1z M74,226.6c-0.2,0-0.3,0.1-0.3,0.3v4.8c0,0.2,0.1,0.3,0.3,0.3h4.8c0.2,0,0.3-0.1,0.3-0.3V227
		c0-0.2-0.1-0.3-0.3-0.3L74,226.6L74,226.6z"/>
</g>
<g>
	<path class="st8" d="M110.9,234.1H88.4c-1.3,0-2.3-1-2.3-2.3V227c0-1.3,1-2.3,2.3-2.3H111c1.3,0,2.3,1,2.3,2.3v4.8
		C113.3,233,112.2,234.1,110.9,234.1z M88.4,226.6c-0.2,0-0.3,0.1-0.3,0.3v4.8c0,0.2,0.1,0.3,0.3,0.3H111c0.2,0,0.3-0.1,0.3-0.3V227
		c0-0.2-0.1-0.3-0.3-0.3L88.4,226.6L88.4,226.6z"/>
</g>
<g>
	<path class="st8" d="M78.8,248H74c-1.3,0-2.3-1-2.3-2.3v-4.8c0-1.3,1-2.3,2.3-2.3h4.8c1.3,0,2.3,1,2.3,2.3v4.8
		C81.1,247,80.1,248,78.8,248z M74,240.6c-0.2,0-0.3,0.1-0.3,0.3v4.8c0,0.2,0.1,0.3,0.3,0.3h4.8c0.2,0,0.3-0.1,0.3-0.3v-4.8
		c0-0.2-0.1-0.3-0.3-0.3H74z"/>
</g>
<g>
	<path class="st8" d="M110.9,248H88.4c-1.3,0-2.3-1-2.3-2.3v-4.8c0-1.3,1-2.3,2.3-2.3H111c1.3,0,2.3,1,2.3,2.3v4.8
		C113.3,247,112.2,248,110.9,248z M88.4,240.6c-0.2,0-0.3,0.1-0.3,0.3v4.8c0,0.2,0.1,0.3,0.3,0.3H111c0.2,0,0.3-0.1,0.3-0.3v-4.8
		c0-0.2-0.1-0.3-0.3-0.3H88.4z"/>
</g>
<g>
	<path class="st8" d="M261.8,242.9H218c-1.3,0-2.3-1-2.3-2.3v-28c0-1.3,1-2.3,2.3-2.3h43.8c1.3,0,2.3,1,2.3,2.3v28
		C264.2,241.8,263.1,242.9,261.8,242.9z M218.1,212.2c-0.2,0-0.3,0.1-0.3,0.3v28c0,0.2,0.1,0.3,0.3,0.3h43.8c0.2,0,0.3-0.1,0.3-0.3
		v-28c0-0.2-0.1-0.3-0.3-0.3H218.1z"/>
</g>
<g>
	<path class="st8" d="M240,228.4c-1.4,0-2.8-0.4-4-1.3l-19.8-14.4c-0.4-0.3-0.5-0.9-0.2-1.4c0.3-0.4,0.9-0.5,1.4-0.2l19.8,14.4
		c1.7,1.2,3.9,1.2,5.6,0l19.8-14.4c0.4-0.3,1.1-0.2,1.4,0.2s0.2,1.1-0.2,1.4L244,227.1C242.7,228,241.3,228.4,240,228.4z"/>
</g>
<g>
	<path class="st8" d="M557.9,245.9h-43.8c-1.3,0-2.3-1-2.3-2.3v-28c0-1.3,1-2.3,2.3-2.3h43.8c1.3,0,2.3,1,2.3,2.3v28
		C560.3,244.8,559.2,245.9,557.9,245.9z M514.2,215.2c-0.2,0-0.3,0.1-0.3,0.3v28c0,0.2,0.1,0.3,0.3,0.3H558c0.2,0,0.3-0.1,0.3-0.3
		v-28c0-0.2-0.1-0.3-0.3-0.3H514.2z"/>
</g>
<g>
	<path class="st8" d="M536.1,231.4c-1.4,0-2.8-0.4-4-1.3l-19.8-14.4c-0.4-0.3-0.5-0.9-0.2-1.4c0.3-0.4,0.9-0.5,1.4-0.2l19.8,14.4
		c1.7,1.2,3.9,1.2,5.6,0l19.8-14.4c0.4-0.3,1.1-0.2,1.4,0.2c0.3,0.4,0.2,1.1-0.2,1.4L540,230.1C538.8,231,537.4,231.4,536.1,231.4z"
		/>
</g>
<g>
	<path class="st8" d="M557.9,369.7h-43.8c-1.3,0-2.3-1-2.3-2.3v-28c0-1.3,1-2.3,2.3-2.3h43.8c1.3,0,2.3,1,2.3,2.3v28
		C560.3,368.7,559.2,369.7,557.9,369.7z M514.2,339.1c-0.2,0-0.3,0.1-0.3,0.3v28c0,0.2,0.1,0.3,0.3,0.3H558c0.2,0,0.3-0.1,0.3-0.3
		v-28c0-0.2-0.1-0.3-0.3-0.3H514.2z"/>
</g>
<g>
	<path class="st8" d="M536.1,355.3c-1.4,0-2.8-0.4-4-1.3l-19.8-14.4c-0.4-0.3-0.5-0.9-0.2-1.4c0.3-0.4,0.9-0.5,1.4-0.2l19.8,14.4
		c1.7,1.2,3.9,1.2,5.6,0l19.8-14.4c0.4-0.3,1.1-0.2,1.4,0.2c0.3,0.4,0.2,1.1-0.2,1.4L540,354C538.8,354.8,537.4,355.3,536.1,355.3z"
		/>
</g>
<g>
	<path class="st8" d="M91.3,354.4c-3.9,0-7-3.2-7-7s3.2-7,7-7s7,3.2,7,7S95.1,354.4,91.3,354.4z M91.3,342.3c-2.8,0-5,2.3-5,5
		s2.3,5,5,5s5-2.3,5-5S94,342.3,91.3,342.3z"/>
</g>
<g>
	<path class="st8" d="M105.4,373.9H76.9c-0.6,0-1-0.4-1-1c0-8.4,6.8-15.3,15.3-15.3s15.3,6.8,15.3,15.3
		C106.4,373.4,106,373.9,105.4,373.9z M78,371.9h26.4c-0.5-6.8-6.2-12.3-13.2-12.3S78.5,365,78,371.9z"/>
</g>
<g>
	<path class="st8" d="M106.6,342.8L106.6,342.8c-0.6,0-1-0.5-1-1l0.1-7.5c0-0.5,0.5-1,1-1l0,0c0.6,0,1,0.5,1,1l-0.1,7.5
		C107.6,342.4,107.2,342.8,106.6,342.8z"/>
</g>
<g>
	<path class="st8" d="M110.4,339.1L110.4,339.1l-7.5-0.1c-0.6,0-1-0.5-1-1c0-0.6,0.5-1,1-1l7.5,0.1c0.6,0,1,0.5,1,1
		C111.4,338.7,111,339.1,110.4,339.1z"/>
</g>
<g id="XMLID_4_">
	<g id="XMLID_9_">
		<path class="st8" d="M219.8,377.1c-2.3,0-4.6-0.6-6.6-1.7c-0.3-0.2-0.5-0.5-0.5-0.9s0.2-0.7,0.5-0.9c3.2-1.8,5.2-5,5.6-8.6h-2.4
			c-3.5,0-6.5-3-6.5-6.5v-22.2c0-3.5,3-6.5,6.5-6.5h41.5c1.8,0,3.5,0.7,4.7,2c1.2,1.2,1.8,2.8,1.8,4.5v22.2c0,3.5-3,6.5-6.5,6.5h-25
			C232.4,371.7,226.7,377.1,219.8,377.1z M215.7,374.3c1.3,0.5,2.7,0.8,4.1,0.8c6.1,0,11.1-5,11.1-11.1c0-0.6,0.4-1,1-1h26
			c2.4,0,4.5-2.1,4.5-4.5v-22.2c0-1.2-0.4-2.3-1.2-3.1c-0.9-0.9-2-1.4-3.3-1.4h-41.5c-2.4,0-4.5,2.1-4.5,4.5v22.2
			c0,2.4,2.1,4.5,4.5,4.5h3.4c0.6,0,1,0.4,1,1C220.8,368.1,218.9,371.8,215.7,374.3z"/>
	</g>
	<g id="XMLID_8_">
		<path class="st8" d="M256.2,341.3h-38.1c-0.6,0-1-0.4-1-1s0.4-1,1-1h38.1c0.6,0,1,0.4,1,1S256.8,341.3,256.2,341.3z"/>
	</g>
	<g id="XMLID_6_">
		<path class="st8" d="M256.2,349h-38.1c-0.6,0-1-0.4-1-1s0.4-1,1-1h38.1c0.6,0,1,0.4,1,1S256.8,349,256.2,349z"/>
	</g>
	<g id="XMLID_5_">
		<path class="st8" d="M256.2,356.6h-38.1c-0.6,0-1-0.4-1-1s0.4-1,1-1h38.1c0.6,0,1,0.4,1,1S256.8,356.6,256.2,356.6z"/>
	</g>
</g>
<g>
	<g>
		<path class="st8" d="M403,249.4h-22.7c-1.3,0-2.3-1-2.3-2.2c0-0.2,0-0.4,0.1-0.5l11.4-19.5c0.2-0.3,0.5-0.5,0.9-0.5h2.8
			c0.4,0,0.7,0.2,0.9,0.5l11.2,19.5c0.1,0.2,0.1,0.3,0.1,0.5C405.3,248.4,404.3,249.4,403,249.4z M380.1,247.3
			c0.1,0,0.1,0.1,0.2,0.1H403c0.1,0,0.2,0,0.2-0.1l-10.7-18.6h-1.6L380.1,247.3z"/>
	</g>
	<g>
		<path class="st8" d="M383.4,244.4l9.3-3.2c2.7-0.9,5.6,0.2,7.1,2.7l0.3,0.5c0.2,0.3,0,0.7-0.4,0.7h-16.1
			C383.1,245.1,383,244.5,383.4,244.4z"/>
	</g>
	<g>
		<path class="st8" d="M393,228.1h-2.8c-0.4,0-0.7-0.2-0.9-0.5l-11.2-19.5c-0.1-0.2-0.1-0.3-0.1-0.5c0-1.2,1-2.2,2.3-2.2H403
			c1.3,0,2.3,1,2.3,2.2c0,0.2,0,0.4-0.1,0.5l-11.4,19.5C393.6,227.9,393.3,228.1,393,228.1z M390.8,226.1h1.6l10.8-18.6
			c-0.1,0-0.1-0.1-0.2-0.1h-22.7c-0.1,0-0.2,0-0.2,0.1L390.8,226.1z M404.3,207.6L404.3,207.6L404.3,207.6z"/>
	</g>
	<g>
		<path class="st8" d="M397.6,213.2c0.3-0.2,0.6,0.2,0.4,0.4l-5.3,9.1c-0.2,0.3-0.5,0.5-0.9,0.5h-0.4c-0.4,0-0.8-0.2-1.1-0.6l-3.5-6
			c-0.1-0.2,0-0.5,0.3-0.5C388.5,216,392.6,216,397.6,213.2z"/>
	</g>
	<g>
		<rect x="388.4" y="225.9" class="st8" width="6.4" height="3.6"/>
	</g>
	<g>
		<path class="st8" d="M404.3,250.2H379c-1.1,0-2-0.9-2-2s0.9-2,2-2h25.3c1.1,0,2,0.9,2,2S405.4,250.2,404.3,250.2z"/>
	</g>
	<g>
		<path class="st8" d="M404.3,208.4H379c-1.1,0-2-0.9-2-2s0.9-2,2-2h25.3c1.1,0,2,0.9,2,2S405.4,208.4,404.3,208.4z"/>
	</g>
</g>
<g>
	<path class="st8" d="M269.2,136h-57.6c-1.3,0-2.3-1-2.3-2.3V78c0-1.3,1-2.3,2.3-2.3h57.6c1.3,0,2.3,1,2.3,2.3v55.7
		C271.5,135,270.5,136,269.2,136z M211.6,77.7c-0.2,0-0.3,0.1-0.3,0.3v55.7c0,0.2,0.1,0.3,0.3,0.3h57.6c0.2,0,0.3-0.1,0.3-0.3V78
		c0-0.2-0.1-0.3-0.3-0.3H211.6z"/>
</g>
<g>
	<path class="st8" d="M270.5,84.4h-60.3c-0.6,0-1-0.4-1-1s0.4-1,1-1h60.3c0.6,0,1,0.4,1,1S271.1,84.4,270.5,84.4z"/>
</g>
<g>
	<circle class="st8" cx="214.5" cy="80.1" r="1"/>
</g>
<g>
	<circle class="st8" cx="218" cy="80.1" r="1"/>
</g>
<g>
	<circle class="st8" cx="221.5" cy="80.1" r="1"/>
</g>
<g>
	<path class="st8" d="M265,130.8h-21c-0.7,0-1.3-0.6-1.3-1.3v-21c0-0.7,0.6-1.3,1.3-1.3h21c0.7,0,1.3,0.6,1.3,1.3v21
		C266.3,130.2,265.7,130.8,265,130.8z"/>
</g>
<g>
	<g>
		<path class="st8" d="M536.2,132.8c-15.2,0-27.5-12.3-27.5-27.5s12.3-27.5,27.5-27.5s27.5,12.3,27.5,27.5S551.3,132.8,536.2,132.8z
			 M536.2,79.8c-14.1,0-25.5,11.4-25.5,25.5s11.4,25.5,25.5,25.5s25.5-11.4,25.5-25.5S550.2,79.8,536.2,79.8z"/>
	</g>
	<g>
		<g>
			<circle class="st8" cx="527.2" cy="97.2" r="5.3"/>
		</g>
		<g>
			<circle class="st8" cx="545.2" cy="97.2" r="5.3"/>
		</g>
		<g>
			<circle class="st8" cx="527.2" cy="113.4" r="5.3"/>
		</g>
		<g>
			<circle class="st8" cx="545.2" cy="113.4" r="5.3"/>
		</g>
	</g>
</g>
<g id="XMLID_119_">
	<path class="st8" d="M425.2,63c-0.3,0-0.5-0.1-0.7-0.3l-4.6-4.6c-0.4-0.4-0.4-1,0-1.4l4.6-4.6c0.2-0.2,0.4-0.3,0.7-0.3l0,0
		c0.3,0,0.5,0.1,0.7,0.3l4.6,4.6c0.4,0.4,0.4,1,0,1.4l-4.6,4.6C425.7,62.9,425.5,63,425.2,63z M422,57.3l3.2,3.2l3.2-3.2l-3.2-3.2
		L422,57.3z"/>
</g>
<g>
	<path class="st8" d="M414.3,58.3h-5.9c-0.6,0-1-0.4-1-1s0.4-1,1-1h5.9c0.6,0,1,0.4,1,1S414.9,58.3,414.3,58.3z M403.4,58.3h-9
		c-0.6,0-1-0.4-1-1s0.4-1,1-1h9c0.6,0,1,0.4,1,1S403.9,58.3,403.4,58.3z M389.4,58.3h-9c-0.6,0-1-0.4-1-1s0.4-1,1-1h9
		c0.6,0,1,0.4,1,1S389.9,58.3,389.4,58.3z M375.4,58.3h-9c-0.6,0-1-0.4-1-1s0.4-1,1-1h9c0.6,0,1,0.4,1,1S375.9,58.3,375.4,58.3z"/>
</g>
<g id="XMLID_200_">
	<path class="st8" d="M149.9,134.2c-0.3,0-0.6-0.1-0.8-0.3l-6.6-7.4l-6.6,7.4c-0.4,0.4-1.1,0.4-1.5,0l-6.6-7.4l-6.6,7.4
		c-0.4,0.4-1.1,0.4-1.5,0l-6.6-7.4l-6.6,7.4c-0.4,0.4-1.1,0.4-1.5,0l-6.6-7.4l-6.6,7.4c-0.4,0.4-1.1,0.4-1.5,0l-7.3-8.3
		c-0.4-0.4-0.3-1,0.1-1.4s1-0.3,1.4,0.1l6.6,7.4l6.6-7.4c0.4-0.4,1.1-0.4,1.5,0l6.6,7.4l6.6-7.4c0.4-0.4,1.1-0.4,1.5,0l6.6,7.4
		l6.6-7.4c0.4-0.4,1.1-0.4,1.5,0l6.6,7.4l6.6-7.4c0.4-0.4,1.1-0.4,1.5,0l6.6,7.4l6.6-7.4c0.4-0.4,1-0.5,1.4-0.1s0.5,1,0.1,1.4
		l-7.3,8.3C150.4,134.1,150.2,134.2,149.9,134.2z"/>
</g>
<g id="XMLID_199_">
	<path class="st8" d="M175.9,64.2c-3.8,0-6.8-3.1-6.8-6.8s3.1-6.8,6.8-6.8s6.8,3.1,6.8,6.8S179.7,64.2,175.9,64.2z M175.9,52.5
		c-2.7,0-4.8,2.2-4.8,4.8c0,2.7,2.2,4.8,4.8,4.8s4.8-2.2,4.8-4.8S178.6,52.5,175.9,52.5z"/>
</g>
<g id="XMLID_223_">
	<path class="st8" d="M383.2,148.4c-3.8,0-6.8-3.1-6.8-6.8s3.1-6.8,6.8-6.8s6.8,3.1,6.8,6.8S386.9,148.4,383.2,148.4z M383.2,136.8
		c-2.7,0-4.8,2.2-4.8,4.8s2.2,4.8,4.8,4.8c2.7,0,4.8-2.2,4.8-4.8S385.8,136.8,383.2,136.8z"/>
</g>
<g id="XMLID_224_">
	<path class="st8" d="M435.4,116.8c-2.2,0-3.9-1.8-3.9-3.9s1.8-3.9,3.9-3.9s3.9,1.8,3.9,3.9S437.5,116.8,435.4,116.8z M435.4,111
		c-1.1,0-1.9,0.9-1.9,1.9s0.9,1.9,1.9,1.9s1.9-0.9,1.9-1.9S436.4,111,435.4,111z"/>
</g>
<g id="XMLID_201_">
	<g id="XMLID_203_">
		<path class="st8" d="M141,92.3c-0.3,0-0.5-0.1-0.7-0.3l-9.2-9.2c-0.4-0.4-0.4-1,0-1.4s1-0.4,1.4,0l9.2,9.2c0.4,0.4,0.4,1,0,1.4
			C141.5,92.2,141.2,92.3,141,92.3z"/>
	</g>
	<g id="XMLID_202_">
		<path class="st8" d="M131.8,92.3c-0.3,0-0.5-0.1-0.7-0.3c-0.4-0.4-0.4-1,0-1.4l9.2-9.2c0.4-0.4,1-0.4,1.4,0s0.4,1,0,1.4l-9.2,9.2
			C132.3,92.2,132.1,92.3,131.8,92.3z"/>
	</g>
</g>
<g id="XMLID_204_">
	<g id="XMLID_214_">
		<path class="st8" d="M335.5,101.1c-0.2,0-0.3,0-0.5-0.1l-11.5-5.9c-0.5-0.3-0.7-0.9-0.4-1.3c0.3-0.5,0.9-0.7,1.3-0.4l11.5,5.9
			c0.5,0.3,0.7,0.9,0.4,1.3C336.2,100.9,335.8,101.1,335.5,101.1z"/>
	</g>
	<g id="XMLID_206_">
		<path class="st8" d="M326.7,103.9c-0.2,0-0.3,0-0.5-0.1c-0.5-0.3-0.7-0.9-0.4-1.3l5.9-11.5c0.3-0.5,0.9-0.7,1.3-0.4
			c0.5,0.3,0.7,0.9,0.4,1.3l-5.9,11.5C327.4,103.7,327.1,103.9,326.7,103.9z"/>
	</g>
</g>
<g>
	<path class="st8" d="M234.5,411.3h-42.9c-0.6,0-1-0.4-1-1s0.4-1,1-1h42.9c0.6,0,1,0.4,1,1S235.1,411.3,234.5,411.3z"/>
</g>
<g>
	<path class="st8" d="M182.3,411.3h-13.6c-0.6,0-1-0.4-1-1s0.4-1,1-1h13.6c0.6,0,1,0.4,1,1S182.8,411.3,182.3,411.3z"/>
</g>
<g>
	<path class="st8" d="M498.3,405h-44.5c-0.6,0-1-0.4-1-1s0.4-1,1-1h44.5c0.6,0,1,0.4,1,1S498.9,405,498.3,405z"/>
</g>
<g>
	<path class="st8" d="M489.4,417.7h-5.9c-0.6,0-1-0.4-1-1s0.4-1,1-1h5.9c0.6,0,1,0.4,1,1S490,417.7,489.4,417.7z M478.5,417.7h-9
		c-0.6,0-1-0.4-1-1s0.4-1,1-1h9c0.6,0,1,0.4,1,1S479.1,417.7,478.5,417.7z M464.5,417.7h-9c-0.6,0-1-0.4-1-1s0.4-1,1-1h9
		c0.6,0,1,0.4,1,1S465.1,417.7,464.5,417.7z M450.5,417.7h-9c-0.6,0-1-0.4-1-1s0.4-1,1-1h9c0.6,0,1,0.4,1,1S451.1,417.7,450.5,417.7
		z"/>
</g>
</svg>
